<?xml version="1.0" standalone="no"?>
<!DOCTYPE svg PUBLIC "-//W3C//DTD SVG 20010904//EN"
 "http://www.w3.org/TR/2001/REC-SVG-20010904/DTD/svg10.dtd">
<svg version="1.0" xmlns="http://www.w3.org/2000/svg"
 width="172.000000pt" height="234.000000pt" viewBox="0 0 172.000000 234.000000"
 preserveAspectRatio="xMidYMid meet">
<metadata>
Created by potrace 1.13, written by Peter Selinger 2001-2015
</metadata>
<g transform="translate(0.000000,234.000000) scale(0.100000,-0.100000)"
fill="#000" stroke="none">
<path d="M492 2234 c-91 -24 -150 -62 -255 -163 l-57 -55 77 -78 77 -77 71 68
c83 81 128 103 211 103 75 1 135 -25 186 -78 48 -51 69 -103 69 -174 1 -82
-27 -138 -111 -224 l-69 -72 74 -74 75 -74 42 39 c121 113 165 179 193 286 66
246 -89 508 -340 575 -64 18 -175 17 -243 -2z"/>
<path d="M150 1737 l0 -152 465 -483 c256 -266 465 -487 465 -492 0 -4 -56
-61 -125 -127 -84 -79 -147 -129 -192 -153 -60 -32 -73 -35 -147 -35 -99 1
-172 30 -240 98 -81 81 -117 192 -97 299 16 87 45 134 151 243 l98 100 -73 78
-73 78 -114 -113 c-161 -160 -208 -260 -208 -445 0 -190 85 -353 238 -457 98
-67 166 -89 295 -94 201 -8 314 48 522 257 60 61 114 111 120 111 5 0 60 -53
121 -117 l111 -118 77 69 c42 38 76 74 74 81 -3 11 -1456 1525 -1464 1525 -2
0 -4 -69 -4 -153z"/>
<path d="M1220 1542 l0 -111 36 -17 c52 -25 119 -96 151 -162 24 -49 28 -69
28 -142 -1 -97 -21 -153 -82 -228 l-36 -44 74 -74 74 -75 48 52 c154 166 184
417 75 633 -60 119 -222 250 -335 272 l-33 7 0 -111z"/>
</g>
</svg>
